<svg width="18" height="18" viewBox="0 0 18 18" fill="none" xmlns="http://www.w3.org/2000/svg">
<path fill-rule="evenodd" clip-rule="evenodd" d="M2.79312 1.25676C2.4026 0.866236 1.76943 0.866236 1.37891 1.25676L1.25676 1.37891C0.866236 1.76943 0.866237 2.4026 1.25676 2.79312L7.46328 8.99964L1.25676 15.2062C0.866237 15.5967 0.866236 16.2299 1.25676 16.6204L1.37891 16.7425C1.76943 17.1331 2.4026 17.1331 2.79312 16.7425L8.99964 10.536L15.2062 16.7425C15.5967 17.1331 16.2299 17.1331 16.6204 16.7425L16.7425 16.6204C17.1331 16.2299 17.1331 15.5967 16.7425 15.2062L10.536 8.99964L16.7425 2.79312C17.1331 2.4026 17.1331 1.76943 16.7425 1.37891L16.6204 1.25676C16.2299 0.866236 15.5967 0.866236 15.2062 1.25676L8.99964 7.46328L2.79312 1.25676Z" fill="white"/>
</svg>
